<?xml version="1.0" standalone="no"?><svg xmlns="http://www.w3.org/2000/svg" viewBox="0 0 1440 320"><path fill="#e7008a" fill-opacity="0.3" d="M0,160L30,144C60,128,120,96,180,106.7C240,117,300,171,360,213.3C420,256,480,288,540,272C600,256,660,192,720,186.7C780,181,840,235,900,261.3C960,288,1020,288,1080,256C1140,224,1200,160,1260,133.3C1320,107,1380,117,1410,122.7L1440,128L1440,320L1410,320C1380,320,1320,320,1260,320C1200,320,1140,320,1080,320C1020,320,960,320,900,320C840,320,780,320,720,320C660,320,600,320,540,320C480,320,420,320,360,320C300,320,240,320,180,320C120,320,60,320,30,320L0,320Z"></path></svg>