<?xml version="1.0" standalone="no"?><svg xmlns="http://www.w3.org/2000/svg" viewBox="0 0 1440 320"><path fill="#0099ff" fill-opacity="0.3" d="M0,128L30,138.7C60,149,120,171,180,192C240,213,300,235,360,213.3C420,192,480,128,540,133.3C600,139,660,213,720,229.3C780,245,840,203,900,197.3C960,192,1020,224,1080,218.7C1140,213,1200,171,1260,133.3C1320,96,1380,64,1410,48L1440,32L1440,0L1410,0C1380,0,1320,0,1260,0C1200,0,1140,0,1080,0C1020,0,960,0,900,0C840,0,780,0,720,0C660,0,600,0,540,0C480,0,420,0,360,0C300,0,240,0,180,0C120,0,60,0,30,0L0,0Z"></path></svg>